<svg xmlns="http://www.w3.org/2000/svg" viewBox="0 0 250.99 250.98"><defs><style>.cls-1{fill:#fff;fill-rule:evenodd;}</style></defs><g id="Layer_2" data-name="Layer 2"><g id="Layer_1-2" data-name="Layer 1"><path class="cls-1" d="M248.07,55.64a847.13,847.13,0,0,1,.05,140A57.63,57.63,0,0,1,195,248.35a935.47,935.47,0,0,1-139.36.06,57.57,57.57,0,0,1-53.11-53.1A935.33,935.33,0,0,1,2.62,56,57.65,57.65,0,0,1,55.38,2.87a848.35,848.35,0,0,1,140,0A57.7,57.7,0,0,1,248.07,55.64Zm-167,3.74a14,14,0,1,0,14,14A14,14,0,0,0,81.11,59.38ZM69,98.12H93.21V176H69ZM183.93,133.3V176h-24.2V138.15c0-9-.17-20.66-12.59-20.66-12.6,0-14.54,9.84-14.54,20V176H108.4V98.12h23.23v10.64H132c3.23-6.12,11.13-12.58,22.92-12.58C179.4,96.18,183.93,112.32,183.93,133.3Z"/></g></g></svg>