<svg xmlns="http://www.w3.org/2000/svg" viewBox="0 0 250.99 250.98"><defs><style>.cls-1{fill:#fff;fill-rule:evenodd;}</style></defs><g id="Layer_2" data-name="Layer 2"><g id="Layer_1-2" data-name="Layer 1"><path class="cls-1" d="M248.07,55.64a847.13,847.13,0,0,1,.05,140A57.63,57.63,0,0,1,195,248.35a935.47,935.47,0,0,1-139.36.06,57.57,57.57,0,0,1-53.11-53.1A935.33,935.33,0,0,1,2.62,56,57.65,57.65,0,0,1,55.38,2.87a848.35,848.35,0,0,1,140,0A57.7,57.7,0,0,1,248.07,55.64ZM205.53,161.93c-.44-.73-3.14-6.62-16.18-18.72-13.65-12.67-11.82-10.62,4.62-32.53,10-13.34,14-21.49,12.76-25-1.19-3.32-8.55-2.44-8.55-2.44l-24.51.15a5.51,5.51,0,0,0-3.16.56,6.8,6.8,0,0,0-2.17,2.63,142.23,142.23,0,0,1-9.05,19.1c-10.91,18.53-15.27,19.51-17.06,18.36-4.15-2.68-3.11-10.77-3.11-16.52,0-18,2.72-25.44-5.3-27.38-2.67-.65-4.63-1.07-11.44-1.14-8.75-.09-16.15,0-20.34,2.08-2.78,1.36-4.94,4.41-3.62,4.58,1.61.22,5.28,1,7.23,3.64,2.51,3.41,2.42,11.09,2.42,11.09s1.44,21.14-3.37,23.76c-3.3,1.8-7.83-1.88-17.56-18.69a155.35,155.35,0,0,1-8.75-18.13,7.41,7.41,0,0,0-2-2.73,10.08,10.08,0,0,0-3.76-1.51l-23.29.15s-3.5.09-4.78,1.61C43.4,86.23,44.45,89,44.45,89s18.23,42.66,38.87,64.15c18.93,19.71,40.43,18.42,40.43,18.42h9.74s2.94-.33,4.44-1.94,1.34-4.28,1.34-4.28-.19-13.07,5.88-15S158.81,163,167,168.59c6.15,4.23,10.83,3.3,10.83,3.3l21.77-.3S210.93,170.89,205.53,161.93Z"/></g></g></svg>