<svg xmlns="http://www.w3.org/2000/svg" viewBox="0 0 250.99 250.98"><defs><style>.cls-1{fill:#fff;fill-rule:evenodd;}</style></defs><g id="Layer_2" data-name="Layer 2"><g id="Layer_1-2" data-name="Layer 1"><path class="cls-1" d="M248.07,55.64a847.13,847.13,0,0,1,.05,140A57.63,57.63,0,0,1,195,248.35a935.47,935.47,0,0,1-139.36.06,57.57,57.57,0,0,1-53.11-53.1A935.33,935.33,0,0,1,2.62,56,57.65,57.65,0,0,1,55.38,2.87a848.35,848.35,0,0,1,140,0A57.7,57.7,0,0,1,248.07,55.64Zm-80.65,69.85A41.93,41.93,0,1,1,125.5,83.56,41.92,41.92,0,0,1,167.42,125.49Zm-14.71,0a27.22,27.22,0,1,0-27.21,27.22A27.22,27.22,0,0,0,152.71,125.49Zm16.37-53.38a9.8,9.8,0,1,0,9.8,9.79A9.79,9.79,0,0,0,169.08,72.11Zm38.06,53.38c0,22.17-.09,25-.49,33.66s-1.77,14.63-3.79,19.82A41.78,41.78,0,0,1,179,202.85c-5.19,2-11.13,3.4-19.82,3.8s-11.49.49-33.66.49-25-.1-33.67-.49-14.62-1.78-19.82-3.8A41.73,41.73,0,0,1,48.14,179c-2-5.19-3.41-11.13-3.8-19.82s-.49-11.49-.49-33.66.09-25,.49-33.67S46.11,77.2,48.14,72A41.68,41.68,0,0,1,72,48.13c5.2-2,11.13-3.4,19.82-3.8s11.49-.49,33.67-.49,24.95.09,33.66.49,14.63,1.78,19.82,3.8A41.73,41.73,0,0,1,202.86,72c2,5.2,3.4,11.13,3.79,19.82S207.14,103.31,207.14,125.49Zm-14.71,0c0-21.8-.08-24.38-.47-33-.37-8-1.7-12.28-2.81-15.16a27.08,27.08,0,0,0-15.5-15.49c-2.88-1.12-7.2-2.45-15.16-2.81-8.61-.4-11.19-.48-33-.48s-24.39.08-33,.48c-8,.36-12.28,1.69-15.16,2.81A27,27,0,0,0,61.85,77.33c-1.12,2.88-2.45,7.2-2.82,15.16-.39,8.62-.47,11.2-.47,33s.08,24.38.47,33c.37,8,1.7,12.29,2.82,15.16a27,27,0,0,0,15.49,15.5c2.88,1.12,7.2,2.45,15.16,2.81,8.61.39,11.2.48,33,.48s24.38-.09,33-.48c8-.36,12.28-1.69,15.16-2.81a27.06,27.06,0,0,0,15.5-15.5c1.11-2.87,2.44-7.2,2.81-15.16C192.35,149.87,192.43,147.29,192.43,125.49Z"/></g></g></svg>